<mxfile host="app.diagrams.net" modified="2023-11-02T18:44:24.746Z" agent="Mozilla/5.0 (X11; Linux x86_64) AppleWebKit/537.36 (KHTML, like Gecko) Chrome/118.0.0.0 Safari/537.36 OPR/104.0.0.0" version="22.0.8" etag="3-NDG9mi3VfsOKwFQxdV" type="github">
  <diagram name="Страница — 1" id="f72o366MKgWSXFwdL696">
    <mxGraphModel>
      <root>
        <mxCell id="0" />
        <mxCell id="1" parent="0" />
      </root>
    </mxGraphModel>
  </diagram>
</mxfile>
